<svg xmlns="http://www.w3.org/2000/svg" width="512" height="512" viewBox="0 0 512 512" role="img" aria-label="Royal Builders mark">
  <!-- Mark only — light variant for dark navy backgrounds -->
  <path fill="#C41E3A" d="M40 356 A216 216 0 1 1 472 356 L436 356 A180 180 0 1 0 76 356 Z"/>

  <g fill="#FFFFFF">
    <rect x="252.5" y="126" width="7" height="24"/>
    <rect x="216" y="150" width="80" height="196"/>
    <rect x="226" y="164" width="6" height="172" fill="#0A1A33"/>
    <rect x="242" y="164" width="6" height="172" fill="#0A1A33"/>
    <rect x="258" y="164" width="6" height="172" fill="#0A1A33"/>
    <rect x="274" y="164" width="6" height="172" fill="#0A1A33"/>
    <rect x="290" y="164" width="6" height="172" fill="#0A1A33"/>
  </g>

  <path fill="#FFFFFF" d="M120 342 Q256 310 392 342 L392 352 Q256 320 120 352 Z"/>

  <g>
    <path fill="#FFFFFF" d="M186 268 L282 232 L378 268 L378 280 L282 244 L186 280 Z"/>
    <rect fill="#FFFFFF" x="212" y="238" width="16" height="30"/>
    <rect fill="#FFFFFF" x="196" y="278" width="172" height="64"/>
    <rect fill="#0A1A33" x="266" y="296" width="32" height="46"/>
    <path d="M270 300 L282 330 L294 300 Z" fill="none" stroke="#FFFFFF" stroke-width="3"/>
    <g>
      <rect fill="#0A1A33" x="208" y="296" width="34" height="26"/>
      <path stroke="#FFFFFF" stroke-width="2.5" d="M225 296 V322 M208 309 H242 M216.5 296 V322 M233.5 296 V322"/>
      <rect fill="#0A1A33" x="318" y="296" width="30" height="24"/>
      <path stroke="#FFFFFF" stroke-width="2.5" d="M333 296 V320 M318 308 H348 M325.5 296 V320 M340.5 296 V320"/>
      <rect fill="#0A1A33" x="352" y="296" width="12" height="24"/>
      <path stroke="#FFFFFF" stroke-width="2.5" d="M358 296 V320"/>
    </g>
  </g>
</svg>
