<svg xmlns="http://www.w3.org/2000/svg" width="512" height="512" viewBox="0 0 512 512" role="img" aria-label="Royal Builders mark">
  <!-- Red arc background -->
  <path fill="#C41E3A" d="M40 356 A216 216 0 1 1 472 356 L436 356 A180 180 0 1 0 76 356 Z"/>

  <!-- Left skyscraper (white for dark bg) -->
  <g fill="#FFFFFF">
    <rect x="148" y="126" width="40" height="200"/>
    <rect x="153" y="96" width="30" height="34"/>
    <rect x="153" y="84" width="30" height="16"/>
  </g>
  <g fill="#0A1A33">
    <rect x="154" y="140" width="6" height="176"/>
    <rect x="165" y="140" width="6" height="176"/>
    <rect x="176" y="140" width="6" height="176"/>
  </g>

  <!-- Right skyscraper (white for dark bg) -->
  <g fill="#FFFFFF">
    <rect x="252" y="126" width="40" height="220"/>
    <rect x="257" y="96" width="30" height="34"/>
    <rect x="257" y="84" width="30" height="16"/>
  </g>
  <g fill="#0A1A33">
    <rect x="258" y="140" width="6" height="196"/>
    <rect x="269" y="140" width="6" height="196"/>
    <rect x="280" y="140" width="6" height="196"/>
  </g>

  <!-- Ground curve -->
  <path fill="#FFFFFF" d="M120 342 Q256 310 392 342 L392 352 Q256 320 120 352 Z"/>

  <!-- House (white for dark bg) -->
  <g>
    <path fill="#FFFFFF" d="M186 268 L282 232 L378 268 L378 280 L282 244 L186 280 Z"/>
    <rect fill="#FFFFFF" x="212" y="238" width="16" height="30"/>
    <rect fill="#FFFFFF" x="196" y="278" width="172" height="64" stroke="#0A1A33" stroke-width="4"/>
    <rect fill="#0A1A33" x="266" y="296" width="32" height="46"/>
    <path d="M270 300 L282 330 L294 300 Z" fill="none" stroke="#FFFFFF" stroke-width="3"/>
    <g>
      <rect fill="#0A1A33" x="208" y="296" width="34" height="26"/>
      <path stroke="#FFFFFF" stroke-width="2.5" d="M225 296 V322 M208 309 H242 M216.5 296 V322 M233.5 296 V322"/>
      <rect fill="#0A1A33" x="318" y="296" width="30" height="24"/>
      <path stroke="#FFFFFF" stroke-width="2.5" d="M333 296 V320 M318 308 H348 M325.5 296 V320 M340.5 296 V320"/>
    </g>
  </g>
</svg>